<?xml version="1.0" encoding="utf-8"?>
<!-- Generator: Adobe Illustrator 27.8.0, SVG Export Plug-In . SVG Version: 6.00 Build 0)  -->
<svg version="1.1" baseProfile="tiny" id="Capa_1" xmlns="http://www.w3.org/2000/svg" xmlns:xlink="http://www.w3.org/1999/xlink"
	 x="0px" y="0px" viewBox="0 0 325.3 252" overflow="visible" xml:space="preserve">
<image display="none" width="500" height="500" xlink:href="../../../Usuario/Descargas/lubiar/IMG_1636.PNG"  transform="matrix(1.9167 0 0 1.9167 -482 -226.1667)">
</image>
<circle fill="#604796" cx="107.9" cy="129.4" r="9.4"/>
<circle fill="#604796" cx="144.7" cy="137.9" r="9.4"/>
<circle fill="#604796" cx="182.5" cy="126.1" r="9.4"/>
<circle fill="#604796" cx="176.4" cy="145" r="9.4"/>
<circle fill="#604796" cx="161.1" cy="161.1" r="9.4"/>
<circle fill="#604796" cx="142.4" cy="174.4" r="9.4"/>
<circle fill="#604796" cx="215.7" cy="142.2" r="9.4"/>
<circle fill="#604796" cx="206.2" cy="165" r="9.4"/>
<circle fill="#604796" cx="194.1" cy="184.5" r="9.4"/>
<circle fill="#604796" cx="178.1" cy="198" r="9.4"/>
<circle fill="#604796" cx="158.9" cy="210.9" r="9.4"/>
<circle fill="#604796" cx="111.2" cy="105.4" r="9.4"/>
<circle fill="#604796" cx="147.2" cy="117.8" r="9.4"/>
<circle fill="#604796" cx="119.1" cy="84.4" r="9.4"/>
<circle fill="#604796" cx="155.6" cy="98.9" r="9.4"/>
<circle fill="#604796" cx="133.7" cy="66.2" r="8.7"/>
<circle fill="#604796" cx="170.2" cy="83" r="8.2"/>
<circle fill="#604796" cx="137.8" cy="217.4" r="8.2"/>
<circle fill="#604796" cx="121.3" cy="180.3" r="8.2"/>
<circle fill="#604796" cx="117.3" cy="217.8" r="8.2"/>
<circle fill="#604796" cx="96.5" cy="178.8" r="8.2"/>
<circle fill="#604796" cx="93.5" cy="214.6" r="8.2"/>
<circle fill="#604796" cx="148.6" cy="51.8" r="8.1"/>
<circle fill="#604796" cx="188" cy="73.7" r="8.1"/>
<circle fill="#604796" cx="77.2" cy="169.2" r="8.1"/>
<circle fill="#604796" cx="72.4" cy="206.3" r="8.1"/>
<circle fill="#604796" cx="51.8" cy="194" r="8.1"/>
<circle fill="#604796" cx="61.1" cy="157.9" r="8.1"/>
<circle fill="#604796" cx="35.7" cy="175.8" r="8.1"/>
<circle fill="#604796" cx="166.9" cy="39.7" r="8.1"/>
<circle fill="#604796" cx="203.5" cy="67.9" r="8.1"/>
<circle fill="#604796" cx="189.4" cy="32.8" r="8.1"/>
<circle fill="#604796" cx="241.2" cy="73.7" r="8.1"/>
<circle fill="#604796" cx="221.7" cy="66.9" r="8.1"/>
<circle fill="#604796" cx="211.6" cy="32.8" r="8.1"/>
<circle fill="#604796" cx="233.2" cy="35.7" r="8.1"/>
<circle fill="#604796" cx="254.4" cy="45.3" r="8.1"/>
<circle fill="#604796" cx="273.4" cy="57.4" r="8.1"/>
<circle fill="#604796" cx="286.7" cy="71.1" r="6.7"/>
<circle fill="#604796" cx="299.2" cy="89.4" r="6.7"/>
<circle fill="#604796" cx="258.7" cy="82.8" r="6.7"/>
<circle fill="#604796" cx="48.4" cy="139.5" r="6.7"/>
<circle fill="#604796" cx="27.6" cy="159" r="6.7"/>
<circle fill="#604796" cx="20.9" cy="139.5" r="6.7"/>
<circle fill="#604796" cx="41.7" cy="122.5" r="6.7"/>
<circle fill="#604796" cx="18.5" cy="116.7" r="6.7"/>
<circle fill="#604796" cx="22.2" cy="93.2" r="6.7"/>
<circle fill="#604796" cx="41.7" cy="106.6" r="6.7"/>
<circle fill="#604796" cx="43.7" cy="90.8" r="6.7"/>
<circle fill="#604796" cx="49.5" cy="76" r="6.7"/>
<circle fill="#604796" cx="30" cy="72.3" r="6.7"/>
<circle fill="#604796" cx="42.9" cy="53.4" r="6.7"/>
<circle fill="#604796" cx="273.3" cy="95" r="6.7"/>
<circle fill="#604796" cx="281.5" cy="109.2" r="6.7"/>
<circle fill="#604796" cx="286.7" cy="126.1" r="6.7"/>
<circle fill="#604796" cx="305.9" cy="112.3" r="6.7"/>
<circle fill="#604796" cx="305" cy="133.9" r="5.1"/>
<circle fill="#604796" cx="305" cy="158.4" r="5.1"/>
<circle fill="#604796" cx="286.7" cy="158.4" r="5.1"/>
<circle fill="#604796" cx="289" cy="143.1" r="5.1"/>
<circle fill="#604796" cx="59.8" cy="62.8" r="5.1"/>
<circle fill="#604796" cx="58.1" cy="38.7" r="5.1"/>
<circle fill="#604796" cx="70" cy="51.7" r="5.1"/>
<circle fill="#604796" cx="83.2" cy="44.3" r="5.1"/>
<circle fill="#604796" cx="77.4" cy="28.6" r="5.1"/>
<circle fill="#604796" cx="278.9" cy="174.4" r="5.1"/>
<circle fill="#604796" cx="269.7" cy="187.1" r="5.1"/>
<circle fill="#604796" cx="295.7" cy="179.5" r="5.1"/>
<circle fill="#604796" cx="283.9" cy="196.3" r="5.1"/>
<circle fill="#604796" cx="267.4" cy="209.6" r="4.2"/>
<circle fill="#604796" cx="258.7" cy="198" r="4.2"/>
<circle fill="#604796" cx="248.9" cy="221.6" r="4.2"/>
<circle fill="#604796" cx="246" cy="205.4" r="4.2"/>
<circle fill="#604796" cx="227" cy="228.5" r="4.2"/>
<circle fill="#604796" cx="231.1" cy="210.5" r="4.2"/>
<circle fill="#604796" cx="98.5" cy="39.3" r="4.2"/>
<circle fill="#604796" cx="94.3" cy="20.6" r="4.2"/>
<circle fill="#604796" cx="111.2" cy="18.4" r="4.2"/>
<circle fill="#604796" cx="128.6" cy="18.4" r="4.2"/>
<circle fill="#604796" cx="204.8" cy="230.6" r="2.8"/>
<circle fill="#604796" cx="215" cy="213.7" r="2.8"/>
<circle fill="#604796" cx="142" cy="24.7" r="2.8"/>
<circle fill="#604796" cx="116.4" cy="37.3" r="2.8"/>
<circle fill="#604796" cx="130.7" cy="38.7" r="2.8"/>
</svg>
